<svg xmlns="http://www.w3.org/2000/svg" viewBox="0 0 560 560" fill="none" shape-rendering="auto" width="280" height="280"><metadata xmlns:rdf="http://www.w3.org/1999/02/22-rdf-syntax-ns#" xmlns:xsi="http://www.w3.org/2001/XMLSchema-instance" xmlns:dc="http://purl.org/dc/elements/1.1/" xmlns:dcterms="http://purl.org/dc/terms/"><rdf:RDF><rdf:Description><dc:title>Notionists</dc:title><dc:creator>Zoish</dc:creator><dc:source xsi:type="dcterms:URI">https://heyzoish.gumroad.com/l/notionists</dc:source><dcterms:license xsi:type="dcterms:URI">https://creativecommons.org/publicdomain/zero/1.0/</dcterms:license><dc:rights>Remix of „Notionists” (https://heyzoish.gumroad.com/l/notionists) by „Zoish”, licensed under „CC0 1.0” (https://creativecommons.org/publicdomain/zero/1.0/)</dc:rights></rdf:Description></rdf:RDF></metadata><mask id="viewboxMask"><rect width="560" height="560" rx="0" ry="0" x="0" y="0" fill="#fff" /></mask><g mask="url(#viewboxMask)"><rect fill="#ffffff" width="560" height="560" x="0" y="0" /><g transform="translate(136 328)"><path d="M159.8 103c-3.2-2.8-6-6.4-9.7-8.1-18-8.5-31.4-21.7-44-36.9-14-16.7-28-34.4-49-43.4-8-3.5-16.3-7.8-24.7 0C22 24.1 9.6 33 12.4 49.1c2.5 14 11 24.6 22.6 33.8 26.5 21.1 58 26.5 90 30.7 11.8 1.6 25.3 1.5 34.8-10.6Z" fill="#fff"/><path fill-rule="evenodd" clip-rule="evenodd" d="M104.8 38.9a85.7 85.7 0 0 0-24-23.6c-4.2-4.4-9.2-6.3-14-8-2-.8-4-1.5-5.8-2.4-22-10.3-48.1.7-57.4 23.3a50.7 50.7 0 0 0 16.1 58.2c20.7 17.7 45.5 30 72.1 35.7 22.7 5 45 7.8 67.9.5 8.8-2.8 16-7.1 17.1-16.5 1.1-8.2-3.5-14.4-10.8-18.7-1.5-.9-2.9-2-4.3-3.2-1.5-1.2-3-2.4-4.8-3.4-19.5-11.2-38.2-23-52-42Zm52 61.3 3 2.8c-9.5 12.1-23 12.2-34.9 10.6-31.8-4.2-63.4-9.6-90-30.7a55.9 55.9 0 0 1-22.5-33.8C9.9 34.8 19.5 26 29 17.7l3.4-3c8-7.4 15.7-4 23.3-.7l1.5.6c19.9 8.6 33.4 24.8 46.6 40.7L106 58A131.4 131.4 0 0 0 150.1 95c2.5 1.2 4.6 3.2 6.7 5.3Z" fill="#000"/></g><g transform="translate(246 125)"><path d="M69.4 96c-.6-14.1-4.3-27.2.4-40.1 1.2-3.3 1.2-8.6 6.7-8 5.5.8 4.5 5.6 4 9.2-4.6 30.7 7 58.6 15 87 2.7 9.3 6.6 18.2 6.1 28.4-.8 16.4-11.3 26.4-27.4 23.6a29.5 29.5 0 0 0-17.2 1.8c-14 5.6-26-5-39.6-5.3-4 0-6.6-7.3-7-12.7 0-2.5.4-5.2 3.5-6 2-.8 4.4.2 5.3 2.2 3.6 7 9.3 3.2 14.4 4.2 11.9 2 23 1.3 34.8.9 5.8-.3 11.7 3.3 17.2-1.7 5.8-5.2 4-11.3 2.2-17.6C81.7 140.3 72 119.7 69.4 96Z" fill="#000"/></g><g transform="translate(-45 137)"><path d="M215.1 76.6c5-12 9-29.4 24.1-22.5 20.7 9.4 13.9 30.7 9.7 47.4-1.6 6.3-14.5 15.9-18.3 14.3-16.3-6.8-19.2-21.7-15.5-39.2ZM442 113.4c-8.6 7.5-17 7.6-22.2-1.5-9-16-8.6-32.8 3.3-47.2 2.5-3 13.8-3.6 16.3-1 14 15 14.6 31.8 2.6 49.7Z" fill="#000"/></g><g transform="translate(-45 137)"></g><g transform="translate(119 114)"><path d="M98.9 41.8c6.6-.8 12-1.8 17.5-2.3 4.7-.5 8.2 1.8 10.3 6 1.9 4-1.5 6-3.4 8.8-14.9 21.7-37 16.6-56.8 13-14-2.6-30.4-5.1-37.1-22.7-3.5-9-2.8-12 7.1-13 5.7-.5 11 1.3 16.2 3 14.8 5.1 30.5 7.5 46.2 7.2ZM229.4 42.2c5.6-4 10.8-3 16.4-1.8 17.1 3.5 34.3 5.8 50.2-4.7 4.3-2.9 9.2-3.5 12.7.7 3.2 3.9.3 7.8-1.9 11.6-7 12.4-18.9 16.4-31.4 19.6-10 2.6-20.4 2-30.5 1.4-15.9-1-21.8-11-15.5-26.8Z" fill="#000"/></g></g></svg>
