<svg xmlns="http://www.w3.org/2000/svg" viewBox="0 0 210 210" fill="none" shape-rendering="auto" width="280" height="280"><metadata xmlns:rdf="http://www.w3.org/1999/02/22-rdf-syntax-ns#" xmlns:xsi="http://www.w3.org/2001/XMLSchema-instance" xmlns:dc="http://purl.org/dc/elements/1.1/" xmlns:dcterms="http://purl.org/dc/terms/"><rdf:RDF><rdf:Description><dc:title>Face Generator</dc:title><dc:creator>The Visual Team</dc:creator><dc:source xsi:type="dcterms:URI">https://www.figma.com/community/file/986078800058673824</dc:source><dcterms:license xsi:type="dcterms:URI">https://creativecommons.org/licenses/by/4.0/</dcterms:license><dc:rights>Remix of „Face Generator” (https://www.figma.com/community/file/986078800058673824) by „The Visual Team”, licensed under „CC BY 4.0” (https://creativecommons.org/licenses/by/4.0/)</dc:rights></rdf:Description></rdf:RDF></metadata><mask id="viewboxMask"><rect width="210" height="210" rx="0" ry="0" x="0" y="0" fill="#fff" /></mask><g mask="url(#viewboxMask)"><rect fill="#89532c" width="210" height="210" x="0" y="0" /><g transform="translate(86.8 138.9) scale(.71856)"><path d="M59 15.6a31 31 0 1 1-62 0c0-17.1 13.8-4.1 31-4.1 17 0 31-13 31 4Z" fill="#F9F9F9"/></g><g transform="translate(2 11) scale(.71856)"><ellipse cx="93.3" cy="94.7" rx="20.8" ry="33.9" fill="#fff"/><ellipse cx="192.1" cy="94.7" rx="20.8" ry="33.9" fill="#fff"/><ellipse cx="93.3" cy="94.7" rx="16.4" ry="27.4" fill="#000"/><ellipse cx="192.1" cy="94.7" rx="16.4" ry="27.4" fill="#000"/><path d="M64 44.4A54 54 0 0 1 93.4 36c16.3 0 31.4 7 29.4 8.4 0 16.2-3 0-28.5 0-27.4 0-30.3 16.2-30.3 0ZM166 44.4a54 54 0 0 1 29.4-8.4c16.3 0 31.4 7 29.4 8.4 0 16.2-3 0-28.5 0-27.4 0-30.3 16.2-30.3 0Z" fill="#000"/></g><g transform="translate(15 89.2) scale(.71856)"></g><g transform="translate(80.3 79.8) scale(.71856)"><g fill="#000" fill-opacity=".2"><rect x="25.9" y="51.5" width="11.7" height="8.9" rx="4.4" transform="rotate(-90 25.9 51.5)"/><rect x="43.7" y="51.5" width="11.7" height="8.9" rx="4.4" transform="rotate(-90 43.7 51.5)"/><path d="M61.2 41.4c.2-.8.2-1.7.2-2.5C61.4 29.6 54 22 44.5 22H34a16.9 16.9 0 0 0-16.7 19.4A16.9 16.9 0 0 1 33.9 27h10.6C53 27 60 33.2 61.2 41.4Z"/></g></g></g></svg>
