<svg xmlns="http://www.w3.org/2000/svg" viewBox="0 0 210 210" fill="none" shape-rendering="auto" width="280" height="280"><metadata xmlns:rdf="http://www.w3.org/1999/02/22-rdf-syntax-ns#" xmlns:xsi="http://www.w3.org/2001/XMLSchema-instance" xmlns:dc="http://purl.org/dc/elements/1.1/" xmlns:dcterms="http://purl.org/dc/terms/"><rdf:RDF><rdf:Description><dc:title>Face Generator</dc:title><dc:creator>The Visual Team</dc:creator><dc:source xsi:type="dcterms:URI">https://www.figma.com/community/file/986078800058673824</dc:source><dcterms:license xsi:type="dcterms:URI">https://creativecommons.org/licenses/by/4.0/</dcterms:license><dc:rights>Remix of „Face Generator” (https://www.figma.com/community/file/986078800058673824) by „The Visual Team”, licensed under „CC BY 4.0” (https://creativecommons.org/licenses/by/4.0/)</dc:rights></rdf:Description></rdf:RDF></metadata><mask id="viewboxMask"><rect width="210" height="210" rx="0" ry="0" x="0" y="0" fill="#fff" /></mask><g mask="url(#viewboxMask)"><rect fill="#89532c" width="210" height="210" x="0" y="0" /><g transform="translate(86.8 138.9) scale(.71856)"><g fill="#DE8383"><path d="M59.8 28.1a31 31 0 1 1-62 0 31 31 0 0 1 62 0Z"/><path fill-rule="evenodd" clip-rule="evenodd" d="M57 19.5H.7A31.1 31.1 0 0 1 29 1.3c12.5 0 23.2 7.5 28 18.2Z"/></g><path fill-rule="evenodd" clip-rule="evenodd" d="M57 15.1H.7A31.1 31.1 0 0 1 29-3c12.5 0 23.2 7.5 28 18.2Z" fill="#F9F9F9"/></g><g transform="translate(2 11) scale(.71856)"><circle cx="199" cy="93.3" r="11.6" fill="#161616"/><circle cx="91" cy="93.3" r="11.6" fill="#161616"/><path d="M175 68.2c4.4-3 11-9.2 24.1-9.2 11.1 0 20.4 6.8 22.1 9.2M67 68.2c4.4-3 11-9.2 24.1-9.2 11.1 0 20.4 6.8 22.1 9.2" stroke="#000" stroke-width="9.2" stroke-linecap="round"/></g><g transform="translate(15 89.2) scale(.71856)"><g fill="#FFC6C6"><rect x="21" y="16" width="43.4" height="43.4" rx="21.7"/><rect x="194" y="16" width="43.4" height="43.4" rx="21.7"/></g></g><g transform="translate(80.3 79.8) scale(.71856)"><path d="M17.2 34.5a17 17 0 0 0-.2 2.4v3.3C17 49.5 24.6 57 33.9 57H44C53.4 57 61 49.5 61 40V37c0-.8 0-1.6-.2-2.4a16.9 16.9 0 0 1-16.7 14.4H34c-8.5 0-15.6-6.2-16.7-14.4Z" fill="#000" fill-opacity=".2"/></g></g></svg>
