<svg xmlns="http://www.w3.org/2000/svg" viewBox="0 0 210 210" fill="none" shape-rendering="auto" width="280" height="280"><metadata xmlns:rdf="http://www.w3.org/1999/02/22-rdf-syntax-ns#" xmlns:xsi="http://www.w3.org/2001/XMLSchema-instance" xmlns:dc="http://purl.org/dc/elements/1.1/" xmlns:dcterms="http://purl.org/dc/terms/"><rdf:RDF><rdf:Description><dc:title>Face Generator</dc:title><dc:creator>The Visual Team</dc:creator><dc:source xsi:type="dcterms:URI">https://www.figma.com/community/file/986078800058673824</dc:source><dcterms:license xsi:type="dcterms:URI">https://creativecommons.org/licenses/by/4.0/</dcterms:license><dc:rights>Remix of „Face Generator” (https://www.figma.com/community/file/986078800058673824) by „The Visual Team”, licensed under „CC BY 4.0” (https://creativecommons.org/licenses/by/4.0/)</dc:rights></rdf:Description></rdf:RDF></metadata><mask id="viewboxMask"><rect width="210" height="210" rx="0" ry="0" x="0" y="0" fill="#fff" /></mask><g mask="url(#viewboxMask)"><rect fill="#89532c" width="210" height="210" x="0" y="0" /><g transform="translate(86.8 138.9) scale(.71856)"><path d="M58.2 16.4a30.6 30.6 0 0 1-61.2 0c0-17 13.7-4.1 30.6-4.1 17 0 30.6-12.8 30.6 4Z" fill="#DE8383"/><path fill-rule="evenodd" clip-rule="evenodd" d="M56.8 25.4H-1.7c-1-3-2.2-6-2.2-9.3 0-11.1 6-9.5 15-7A61.6 61.6 0 0 0 27.6 12c6 0 11.6-1.6 16.4-2.9 9-2.5 14.3-3.4 14.3 7.7 0 3.2-.5 5.6-1.5 8.6Z" fill="#F9F9F9"/><path fill-rule="evenodd" clip-rule="evenodd" d="M50.4 36a29 29 0 0 1-23 11.5 29 29 0 0 1-22.6-11c4.1-5 12.9-8.4 23-8.4 9.8 0 18.3 3.2 22.6 8Z" fill="#C06E6E"/></g><g transform="translate(2 11) scale(.71856)"><path d="M76 75.5a23.9 23.9 0 1 0 40.7 22.7L76.2 75.6ZM212.1 75.5a23.9 23.9 0 1 1-40.7 22.7L212 75.6Z" fill="#fff"/><path d="M74.5 52.5c7.5 5 40 26 49 31.5M213 53c-7.5 5-40 26-49 31.5" stroke="#000" stroke-width="3.7" stroke-linecap="round"/><path d="M86.1 81.2a12.8 12.8 0 1 0 20.6 11.5L86.1 81.2ZM202 81.2a12.8 12.8 0 1 1-20.5 11.5L202 81.2Z" fill="#000"/></g><g transform="translate(15 89.2) scale(.71856)"></g><g transform="translate(80.3 79.8) scale(.71856)"><path d="M18.6 38.3A10 10 0 0 0 29 45a10 10 0 0 0 19.4 0h.9a10 10 0 0 0 9.5-6.7 10 10 0 0 1-10.4 13.4 10 10 0 0 1-19.4 0H28a10 10 0 0 1-9.5-13.4Z" fill="#000" fill-opacity=".2"/></g></g></svg>
