<svg xmlns="http://www.w3.org/2000/svg" viewBox="0 0 210 210" fill="none" shape-rendering="auto" width="280" height="280"><metadata xmlns:rdf="http://www.w3.org/1999/02/22-rdf-syntax-ns#" xmlns:xsi="http://www.w3.org/2001/XMLSchema-instance" xmlns:dc="http://purl.org/dc/elements/1.1/" xmlns:dcterms="http://purl.org/dc/terms/"><rdf:RDF><rdf:Description><dc:title>Face Generator</dc:title><dc:creator>The Visual Team</dc:creator><dc:source xsi:type="dcterms:URI">https://www.figma.com/community/file/986078800058673824</dc:source><dcterms:license xsi:type="dcterms:URI">https://creativecommons.org/licenses/by/4.0/</dcterms:license><dc:rights>Remix of „Face Generator” (https://www.figma.com/community/file/986078800058673824) by „The Visual Team”, licensed under „CC BY 4.0” (https://creativecommons.org/licenses/by/4.0/)</dc:rights></rdf:Description></rdf:RDF></metadata><mask id="viewboxMask"><rect width="210" height="210" rx="0" ry="0" x="0" y="0" fill="#fff" /></mask><g mask="url(#viewboxMask)"><rect fill="#da9969" width="210" height="210" x="0" y="0" /><g transform="translate(86.8 138.9) scale(.71856)"><path d="M60.7 22.9c0 16.9-14.8 30.5-33 30.5C9.2 53.4-5.6 39.8-5.6 23S-1 8 27.6 8c34 0 33-2 33 14.8Z" fill="#DE8383"/><path fill-rule="evenodd" clip-rule="evenodd" d="M55.1 8.7c-5 4.8-15.3 9-27.2 9A42 42 0 0 1 1 9.3C4 7.9 9.8 8 21.5 8a2115 2115 0 0 0 14.8 0c9.4 0 15.3 0 18.8.7Z" fill="#F9F9F9"/></g><g transform="translate(2 11) scale(.71856)"><path d="M74 81.1h40.4v36.8H74zM74 48h40.4v11H74zM173.3 81.1h40.4v36.8h-40.4zM173.3 48h40.4v11h-40.4z" fill="#000"/></g><g transform="translate(15 89.2) scale(.71856)"></g><g transform="translate(80.3 79.8) scale(.71856)"><path d="M39 28c-3.7.8-11 4-11 10.5 0 8.2 7.3 10.6 11 11.7" stroke="#000" stroke-opacity=".5" stroke-width="4" stroke-linecap="round" stroke-linejoin="round"/></g></g></svg>
